<?xml version="1.0" encoding="utf-8"?>
<!-- Generator: Adobe Illustrator 27.3.1, SVG Export Plug-In . SVG Version: 6.00 Build 0)  -->
<svg version="1.1" id="svg1" xmlns="http://www.w3.org/2000/svg" xmlns:xlink="http://www.w3.org/1999/xlink" x="0px" y="0px"
	 viewBox="0 0 1300 1300" style="enable-background:new 0 0 1300 1300;" xml:space="preserve">
<style type="text/css">
	.st0{fill:#FFFFFF;}
</style>
<path class="st0" d="M650,0C291,0,0,291,0,650s291,650,650,650s650-291,650-650S1008.9,0,650,0z M956.3,863.4L897.8,805l-6.3,35.9
	l-12.4,12.4l-89.8-89.8H681.8l-66,101.1H478.6v-53.2H587l65.9-101.1h158.3l41.8,41.8l10-57l115.2,115.2h141.7L1017,707.2h-54.2
	l-129-129l-3,4.6l-32.5,49.8L782,657.3H646.2l-55.5,85l-95-54.9L404,827.8l-24,36.8H93.5l212.3-325.4l60.6,35.1l101.9-156.5
	l100.5,58L637,371.4L747.7,482l26.9-37.9l50,50l59.3-90.8l-47,8l-8.8-52.5L963.2,336l22.5,133.3l-52.5,8.8l-7.1-42.3L863,532.7
	L984.3,654h54.2l192.8,192.8v16.8L956.3,863.4L956.3,863.4z"/>
<polygon class="st0" points="795.1,539.6 753.1,603.9 617.4,603.9 593.4,640.7 573.6,671 478.6,616.1 351.2,811.4 191.5,811.4 
	322.6,610.4 383.2,645.4 485.5,488.9 549.6,526 552.1,527.4 586,547.1 645.9,455.2 754.5,563.9 781.6,526.1 "/>
</svg>
